<?xml version="1.0" encoding="iso-8859-1"?>
<!-- Generator: Adobe Illustrator 18.1.1, SVG Export Plug-In . SVG Version: 6.00 Build 0)  -->
<svg version="1.1" id="Capa_1" xmlns="http://www.w3.org/2000/svg" xmlns:xlink="http://www.w3.org/1999/xlink" x="0px" y="0px"
	 viewBox="0 0 18.092 18.092" style="enable-background:new 0 0 18.092 18.092;" xml:space="preserve">
<g>
	<path style="fill:#030104;" d="M13.865,16.931l-2.144-3.238h0.208c1.034,0,1.874-0.839,1.874-1.873V2.585
		c0-1.035-0.84-1.874-1.874-1.874h-1.112V0.092C10.817,0.041,10.738,0,10.639,0s-0.177,0.041-0.177,0.092v0.619H9.41H8.631h-1.18
		V0.092C7.451,0.041,7.371,0,7.273,0S7.094,0.041,7.094,0.092v0.619H6.112c-1.035,0-1.874,0.839-1.874,1.874v9.235
		c0,1.034,0.839,1.873,1.874,1.873H6.37l-2.144,3.238c-0.228,0.344-0.134,0.809,0.211,1.037c0.127,0.084,0.271,0.124,0.413,0.124
		c0.242,0,0.48-0.118,0.625-0.335l2.601-3.929c0.029-0.044,0.053-0.09,0.071-0.136h1.799c0.02,0.046,0.042,0.092,0.071,0.136
		l2.602,3.929c0.144,0.217,0.382,0.335,0.625,0.335c0.142,0,0.284-0.04,0.411-0.124C13.998,17.74,14.094,17.275,13.865,16.931z
		 M12.069,11.897h-0.716c-0.356,0-0.644-0.289-0.644-0.644c0-0.356,0.287-0.646,0.644-0.646h0.716c0.355,0,0.645,0.289,0.645,0.646
		C12.714,11.608,12.425,11.897,12.069,11.897z M7.733,1.143h2.576v0.674H7.733V1.143z M5.096,4.305c0-0.826,0.67-1.496,1.497-1.496
		h4.84c0.826,0,1.497,0.67,1.497,1.496V7.28c0,0.826-0.671,1.496-1.497,1.496h-4.84c-0.827,0-1.497-0.67-1.497-1.496
		C5.096,7.28,5.096,4.305,5.096,4.305z M5.965,11.897c-0.355,0-0.644-0.289-0.644-0.644c0-0.356,0.288-0.646,0.644-0.646h0.716
		c0.355,0,0.645,0.289,0.645,0.646c0,0.354-0.29,0.644-0.645,0.644H5.965z"/>
</g>
<g>
</g>
<g>
</g>
<g>
</g>
<g>
</g>
<g>
</g>
<g>
</g>
<g>
</g>
<g>
</g>
<g>
</g>
<g>
</g>
<g>
</g>
<g>
</g>
<g>
</g>
<g>
</g>
<g>
</g>
</svg>
